<svg width="263" height="263" viewBox="0 0 263 263" fill="none" xmlns="http://www.w3.org/2000/svg">
<path d="M71.875 39C63.156 39 54.7941 42.4636 48.6289 48.6289C42.4636 54.7941 39 63.156 39 71.875V190.225C39 198.944 42.4636 207.306 48.6289 213.471C54.7941 219.636 63.156 223.1 71.875 223.1H125.79C120.585 212.924 117.881 201.655 117.9 190.225C117.894 183.556 118.81 176.918 120.622 170.5H71.875C70.1312 170.5 68.4588 169.807 67.2258 168.574C65.9927 167.341 65.3 165.669 65.3 163.925C65.3 162.181 65.9927 160.509 67.2258 159.276C68.4588 158.043 70.1312 157.35 71.875 157.35H125.79C130.106 148.887 136.047 141.358 143.274 135.191C150.5 129.025 158.871 124.342 167.907 121.412C176.944 118.481 186.469 117.359 195.939 118.11C205.409 118.862 214.639 121.471 223.1 125.79V71.875C223.1 63.156 219.636 54.7941 213.471 48.6289C207.306 42.4636 198.944 39 190.225 39H71.875ZM71.875 183.65H98.175C99.9188 183.65 101.591 184.343 102.824 185.576C104.057 186.809 104.75 188.481 104.75 190.225C104.75 191.969 104.057 193.641 102.824 194.874C101.591 196.107 99.9188 196.8 98.175 196.8H71.875C70.1312 196.8 68.4588 196.107 67.2258 194.874C65.9927 193.641 65.3 191.969 65.3 190.225C65.3 188.481 65.9927 186.809 67.2258 185.576C68.4588 184.343 70.1312 183.65 71.875 183.65ZM104.75 65.3C106.022 65.2998 107.267 65.6687 108.334 66.362C109.4 67.0552 110.243 68.043 110.76 69.2055L137.06 128.381C137.41 129.17 137.602 130.02 137.624 130.884C137.646 131.747 137.497 132.606 137.187 133.412C136.877 134.218 136.411 134.955 135.816 135.581C135.221 136.206 134.509 136.709 133.719 137.06C132.93 137.41 132.08 137.602 131.216 137.624C130.353 137.646 129.494 137.497 128.688 137.187C127.882 136.877 127.145 136.411 126.519 135.816C125.894 135.221 125.391 134.509 125.04 133.719L118.005 117.9H91.4948L84.4595 133.719C83.7516 135.313 82.4394 136.561 80.8118 137.187C79.1842 137.813 77.3744 137.768 75.7805 137.06C74.1867 136.352 72.9394 135.039 72.313 133.412C71.6866 131.784 71.7325 129.974 72.4405 128.381L98.7405 69.2055C99.2569 68.043 100.1 67.0552 101.166 66.362C102.233 65.6687 103.478 65.2998 104.75 65.3ZM112.167 104.75L104.75 88.0626L97.3334 104.75H112.167ZM177.075 71.875V85.025H190.225C191.969 85.025 193.641 85.7177 194.874 86.9508C196.107 88.1838 196.8 89.8562 196.8 91.6C196.8 93.3438 196.107 95.0162 194.874 96.2492C193.641 97.4823 191.969 98.175 190.225 98.175H177.075V111.325C177.075 113.069 176.382 114.741 175.149 115.974C173.916 117.207 172.244 117.9 170.5 117.9C168.756 117.9 167.084 117.207 165.851 115.974C164.618 114.741 163.925 113.069 163.925 111.325V98.175H150.775C149.031 98.175 147.359 97.4823 146.126 96.2492C144.893 95.0162 144.2 93.3438 144.2 91.6C144.2 89.8562 144.893 88.1838 146.126 86.9508C147.359 85.7177 149.031 85.025 150.775 85.025H163.925V71.875C163.925 70.1312 164.618 68.4588 165.851 67.2258C167.084 65.9927 168.756 65.3 170.5 65.3C172.244 65.3 173.916 65.9927 175.149 67.2258C176.382 68.4588 177.075 70.1312 177.075 71.875ZM249.4 190.225C249.4 205.919 243.165 220.971 232.068 232.068C220.971 243.165 205.919 249.4 190.225 249.4C174.531 249.4 159.479 243.165 148.382 232.068C137.284 220.971 131.05 205.919 131.05 190.225C131.05 174.531 137.284 159.479 148.382 148.382C159.479 137.284 174.531 131.05 190.225 131.05C205.919 131.05 220.971 137.284 232.068 148.382C243.165 159.479 249.4 174.531 249.4 190.225ZM196.8 163.925C196.8 162.181 196.107 160.509 194.874 159.276C193.641 158.043 191.969 157.35 190.225 157.35C188.481 157.35 186.809 158.043 185.576 159.276C184.343 160.509 183.65 162.181 183.65 163.925V183.65H163.925C162.181 183.65 160.509 184.343 159.276 185.576C158.043 186.809 157.35 188.481 157.35 190.225C157.35 191.969 158.043 193.641 159.276 194.874C160.509 196.107 162.181 196.8 163.925 196.8H183.65V216.525C183.65 218.269 184.343 219.941 185.576 221.174C186.809 222.407 188.481 223.1 190.225 223.1C191.969 223.1 193.641 222.407 194.874 221.174C196.107 219.941 196.8 218.269 196.8 216.525V196.8H216.525C218.269 196.8 219.941 196.107 221.174 194.874C222.407 193.641 223.1 191.969 223.1 190.225C223.1 188.481 222.407 186.809 221.174 185.576C219.941 184.343 218.269 183.65 216.525 183.65H196.8V163.925Z" fill="#798777"/>
</svg>
